<svg width="428" height="80" viewBox="0 0 428 80" fill="none" xmlns="http://www.w3.org/2000/svg">
<g clip-path="url(#clip0_105_4387)">
<path fill-rule="evenodd" clip-rule="evenodd" d="M101.21 13.8501C99.0948 13.8383 96.9955 14.2215 95.0205 14.9801C93.175 15.6779 91.508 16.7778 90.1405 18.2001C88.6351 19.7978 87.387 21.6195 86.4405 23.6001C85.3739 25.8065 84.6007 28.143 84.1405 30.5501C83.6045 33.2737 83.3432 36.0443 83.3605 38.8201C83.3244 42.2295 83.7379 45.6288 84.5905 48.9301C85.3034 51.7346 86.4978 54.3941 88.1205 56.7901C89.5396 58.8695 91.4313 60.583 93.6405 61.7901C96.2268 63.12 99.1329 63.702 102.032 63.4706C104.931 63.2392 107.708 62.2035 110.05 60.4801C112.85 58.2051 114.951 55.186 116.11 51.7701C117.6 47.4496 118.311 42.899 118.21 38.3301C118.234 35.1471 117.848 31.9743 117.06 28.8901C116.388 26.1745 115.269 23.5894 113.75 21.2401C112.404 19.157 110.619 17.3927 108.52 16.0701C106.339 14.6596 103.808 13.884 101.21 13.8301V13.8501ZM100.27 12.5001C104.68 12.4465 109.061 13.2128 113.19 14.7601C117.011 16.2177 120.48 18.4669 123.37 21.3601C125.744 23.719 127.657 26.4998 129.01 29.5601C130.601 33.1464 131.247 37.08 130.888 40.9867C130.53 44.8934 129.177 48.6434 126.96 51.8801C124.212 55.937 120.451 59.205 116.05 61.3601C111.358 63.704 106.176 64.9001 100.93 64.8501C96.9078 64.8706 92.9121 64.1939 89.1205 62.8501C85.5556 61.5903 82.2512 59.689 79.3705 57.2401C76.6244 54.8996 74.3882 52.0201 72.8005 48.7801C71.2468 45.6435 70.4391 42.1903 70.4405 38.6901C70.4412 34.0247 71.8607 29.4699 74.5105 25.6301C77.2831 21.586 81.0416 18.3163 85.4305 16.1301C90.0067 13.7291 95.1028 12.4895 100.27 12.5201V12.5001ZM340.67 61.73C339.373 62.3396 337.941 62.608 336.51 62.51H335.75V63.91H359.75V62.44C358.816 62.403 357.893 62.2278 357.01 61.92C355.968 61.4882 355.038 60.8248 354.29 59.98C353.41 58.9564 352.677 57.8155 352.11 56.59L331.87 12.52H330.54L314.54 48.76C312.12 54.2267 309.634 57.9434 307.08 59.91C306.185 60.6385 305.196 61.2438 304.14 61.71C303.436 61.981 302.705 62.1787 301.96 62.3V63.91H320.25V62.45C319.789 62.4142 319.331 62.344 318.88 62.24C318.27 62.0554 317.685 61.7933 317.14 61.46C316.125 60.887 315.292 60.0374 314.74 59.01C314.149 58.0173 313.832 56.8855 313.82 55.73C313.829 54.4008 314.097 53.0861 314.61 51.86L316.24 48.11H337.58L338.4 49.95C338.57 50.26 338.72 50.58 338.87 50.95C339.02 51.32 339.13 51.53 339.2 51.66C340.37 54.2 341.13 55.93 341.49 56.9C341.802 57.6811 341.978 58.5097 342.01 59.35C342.032 59.8324 341.918 60.3111 341.681 60.7319C341.444 61.1526 341.094 61.4985 340.67 61.73ZM316.83 46.78L326.7 24.33L336.83 46.78H316.83ZM236.81 36.95C238.893 37.81 240.788 39.0666 242.39 40.65C243.619 41.7658 244.603 43.1244 245.28 44.6399C245.946 46.1909 246.287 47.8621 246.28 49.55C246.273 51.3455 245.891 53.1198 245.16 54.76C244.432 56.4926 243.353 58.0554 241.99 59.35C240.156 61.2203 237.905 62.6289 235.42 63.46C232.545 64.4138 229.53 64.8769 226.5 64.83C224.284 64.8414 222.074 64.6033 219.91 64.12C217.334 63.4818 214.818 62.6219 212.39 61.55C210.955 60.952 209.49 60.428 208 59.98C207.072 59.7199 206.114 59.5821 205.15 59.57C203.592 59.5196 202.061 59.9912 200.8 60.91C199.584 61.8705 198.748 63.2311 198.44 64.7499H197.18V43.24H198.74C199.494 46.7489 201.117 50.0122 203.46 52.73C205.365 54.8617 207.563 56.7104 209.99 58.22C212.595 59.892 215.405 61.2197 218.35 62.1699C221.021 63.0635 223.815 63.5359 226.63 63.57C228.819 63.6008 230.992 63.2069 233.03 62.41C234.8 61.7695 236.365 60.6641 237.56 59.21C238.622 57.8939 239.194 56.2507 239.18 54.5599C239.168 53.6318 238.966 52.716 238.588 51.8684C238.21 51.0207 237.663 50.2591 236.98 49.63C236.206 48.8997 235.326 48.2896 234.37 47.82C233.033 47.1507 231.645 46.5857 230.22 46.13C228.5 45.55 226.17 44.8699 223.22 44.0799L219.61 43.0799C213.997 41.5599 210.104 40.38 207.93 39.54C205.938 38.8545 204.024 37.9595 202.22 36.87C200.823 35.978 199.605 34.8315 198.63 33.49C197.187 31.6881 196.401 29.4485 196.4 27.1399C196.376 24.4239 197.252 21.7762 198.89 19.6099C200.705 17.2646 203.125 15.4596 205.89 14.3899C209.04 13.1144 212.412 12.4787 215.81 12.52C221.765 12.6541 227.598 14.229 232.81 17.1099C234.112 17.8776 235.542 18.4028 237.03 18.66C238.88 18.66 240.22 17.28 241.03 14.51H242.3V31.59H240.95C239.803 28.1511 238.086 24.9295 235.87 22.0599C234.38 20.3374 232.608 18.8801 230.63 17.7499C228.415 16.4728 226.041 15.4911 223.57 14.83C220.992 14.1303 218.332 13.7739 215.66 13.77C213.843 13.7428 212.034 14.0235 210.31 14.6C208.81 15.1055 207.443 15.9429 206.31 17.05C205.557 17.8023 204.938 18.6783 204.48 19.6399C204.046 20.4999 203.81 21.4466 203.79 22.41C203.787 23.2341 203.957 24.0497 204.292 24.803C204.626 25.5562 205.117 26.23 205.73 26.7799C206.501 27.4825 207.374 28.0626 208.32 28.4999C209.712 29.1639 211.157 29.7092 212.64 30.13C214.41 30.66 216.87 31.31 220.05 32.07C220.628 32.2693 221.22 32.4264 221.82 32.54L223.58 32.98L226.4 33.7C229.941 34.5412 233.42 35.6272 236.81 36.95ZM158.89 42.95L149.73 22.84C149.119 21.5528 148.779 20.1539 148.73 18.73C148.707 18.1772 148.823 17.6273 149.068 17.1311C149.312 16.6348 149.678 16.208 150.13 15.8899C151.276 15.1587 152.624 14.8087 153.98 14.8899H155.86V13.5599H129.16V14.8899H129.89C133.53 14.8899 136.52 17.3999 138.82 22.4199L158.33 64.95L159.51 65.0399L164.19 54.5099L163.49 52.9799L158.89 42.95ZM36.6705 42.51V41.13H63.8505V42.56C61.6719 42.5369 59.5611 43.3165 57.9205 44.75C56.4205 46.25 55.6705 48.55 55.6705 51.65V63.37H54.3305C53.5054 62.55 52.5488 61.874 51.5005 61.37C50.5423 61.0096 49.5239 60.8365 48.5005 60.86C47.5119 60.8512 46.5255 60.9552 45.5605 61.17C44.2705 61.5082 43.0097 61.9496 41.7905 62.49C39.7548 63.2479 37.6742 63.8791 35.5605 64.38C33.6948 64.7299 31.7985 64.8907 29.9005 64.86C25.8757 64.8885 21.8743 64.2464 18.0605 62.96C14.563 61.7689 11.3226 59.9265 8.51048 57.53C5.86739 55.24 3.73179 52.4232 2.24048 49.26C0.743054 46.0552 -0.02212 42.5573 0.000486717 39.02C-0.00244185 36.8083 0.286725 34.6059 0.860487 32.47C1.41473 30.3664 2.2524 28.3479 3.35049 26.47C4.46639 24.5584 5.80948 22.7889 7.35049 21.2C9.19739 19.3741 11.275 17.7974 13.5305 16.51C15.781 15.2261 18.1784 14.2188 20.6705 13.51C23.1133 12.8365 25.6366 12.5001 28.1705 12.51C30.6504 12.5199 33.1183 12.8561 35.5105 13.51C38.2343 14.2683 40.8744 15.3002 43.3905 16.59C44.7714 17.4164 46.2997 17.9666 47.8905 18.21C48.8544 18.1958 49.7823 17.8417 50.5105 17.21C51.6109 16.2323 52.5641 15.1006 53.3405 13.85H54.6705L55.0105 34H53.3405C52.7105 32.12 52.1305 30.55 51.5805 29.33C50.9443 27.8941 50.1742 26.5214 49.2805 25.23C46.9845 21.8513 43.9297 19.0568 40.3605 17.07C36.9827 15.1343 33.1634 14.1012 29.2705 14.07C27.265 14.0761 25.2768 14.4419 23.4005 15.15C21.6345 15.7574 20.0208 16.7399 18.6705 18.03C16.5409 20.3014 15.0504 23.096 14.3505 26.13C13.3466 30.5913 12.8899 35.1582 12.9905 39.73C12.9905 41.44 13.0905 43.1 13.2205 44.73C13.3505 46.36 13.5305 47.82 13.7805 49.07C14.0305 50.32 14.3205 51.57 14.6905 52.79C14.9732 53.83 15.3689 54.836 15.8705 55.79C16.577 56.9907 17.434 58.0963 18.4205 59.08C19.4195 60.0465 20.5467 60.8708 21.7705 61.53C23.0594 62.2256 24.4395 62.7373 25.8705 63.05C27.3605 63.384 28.8835 63.5483 30.4105 63.54C32.4779 63.5397 34.5372 63.281 36.5405 62.77C38.2846 62.3853 39.9513 61.7091 41.4705 60.77C42.5792 60.0756 43.4902 59.1071 44.1156 57.958C44.7409 56.809 45.0595 55.5181 45.0405 54.21V51.61C45.0405 45.79 42.2305 42.78 36.6705 42.51ZM398.17 39.23C405.36 39.13 411.07 38.56 417.33 35.64C427.82 30.13 422.89 16.44 412.53 14.71C407.293 13.2032 389.485 13.4031 375.812 13.5565C370.791 13.6129 366.328 13.6629 363.25 13.62V14.88C368.43 15.2 371.63 18 371.47 24.04V53.35C371.63 59.35 368.4 62.18 363.25 62.51V63.91H390.85V62.6C381.162 62.3374 381.797 48.3725 382.084 42.0664C382.147 40.6857 382.193 39.6721 382.11 39.25H393.43L410.84 63.91H427.61V62.52C417.37 61.56 403.67 46.13 398.17 39.23ZM382.11 37.92V14.92C383.441 14.9363 384.976 14.9003 386.631 14.8614C397.115 14.6151 412.428 14.2554 411.27 26.39C411.855 40.1921 387.967 38.358 382.982 37.9751C382.509 37.9389 382.207 37.9156 382.11 37.92ZM250.29 33.22V13.55H309.38V33.22H308.38C307.507 29.3765 305.908 25.7348 303.67 22.4901C301.805 20.0558 299.391 18.0973 296.624 16.7747C293.857 15.4521 290.816 14.8029 287.75 14.8801H285.12V53.33C285.12 59.34 288.08 62.37 293.97 62.47V63.89H264.97V62.4901H265.42C271.52 62.4967 274.57 59.4434 274.57 53.33V14.86H271.32C265.32 14.86 259.42 17.23 255.67 22.86C253.625 26.0439 252.121 29.5446 251.22 33.22H250.29Z" fill="#262525"/>
<path fill-rule="evenodd" clip-rule="evenodd" d="M179.13 0H178.901C178.484 3.4696 176.935 6.70483 174.492 9.20367C172.049 11.7025 168.85 13.3252 165.391 13.82V14.13C168.86 14.6282 172.067 16.2611 174.511 18.7738C176.955 21.2866 178.499 24.5378 178.901 28.02H179.121C179.509 24.4621 181.092 21.141 183.611 18.5984C186.13 16.0559 189.436 14.442 192.991 14.02V13.79C189.47 13.3753 186.19 11.7908 183.677 9.29047C181.164 6.7901 179.563 3.51856 179.13 0Z" fill="#F0593A"/>
</g>
<defs>
<clipPath id="clip0_105_4387">
<rect width="427.61" height="80" fill="white"/>
</clipPath>
</defs>
</svg>
